<svg width="30" height="30" viewBox="0 0 30 30" fill="none" xmlns="http://www.w3.org/2000/svg">
<circle cx="15" cy="15" r="15" fill="#752126"/>
<path d="M21.0852 8.85133C20.8428 8.85124 20.6053 8.91988 20.4004 9.04929C20.1954 9.1787 20.0313 9.36358 19.9271 9.58248C19.823 9.80138 19.783 10.0453 19.8119 10.286C19.8407 10.5267 19.9373 10.7543 20.0902 10.9423L22.1452 13.3553L24.1802 10.9663L24.1902 10.9553L24.2002 10.9423C24.3121 10.8084 24.3954 10.653 24.4452 10.4858C24.4949 10.3185 24.51 10.1428 24.4896 9.96954C24.4691 9.79624 24.4135 9.62894 24.3261 9.47786C24.2388 9.32679 24.1216 9.19512 23.9816 9.09091C23.8416 8.9867 23.6819 8.91213 23.5121 8.87178C23.3423 8.83143 23.1661 8.82613 22.9942 8.85622C22.8223 8.8863 22.6584 8.95114 22.5124 9.04676C22.3664 9.14238 22.2415 9.26677 22.1452 9.41233C22.0279 9.23977 21.8702 9.09852 21.6858 9.00091C21.5014 8.9033 21.2959 8.85229 21.0872 8.85233L21.0852 8.85133Z" stroke="#EBDEDB" stroke-linecap="round" stroke-linejoin="round"/>
<path d="M15.6585 13.597C15.6585 13.847 15.5592 14.0867 15.3824 14.2635C15.2057 14.4402 14.966 14.5395 14.716 14.5395C14.466 14.5395 14.2263 14.4402 14.0496 14.2635C13.8728 14.0867 13.7735 13.847 13.7735 13.597C13.7735 13.347 13.8728 13.1073 14.0496 12.9306C14.2263 12.7538 14.466 12.6545 14.716 12.6545C14.966 12.6545 15.2057 12.7538 15.3824 12.9306C15.5592 13.1073 15.6585 13.347 15.6585 13.597ZM10.9475 13.597C10.9475 13.847 10.8482 14.0867 10.6714 14.2635C10.4947 14.4402 10.255 14.5395 10.005 14.5395C9.75503 14.5395 9.5153 14.4402 9.33855 14.2635C9.1618 14.0867 9.0625 13.847 9.0625 13.597C9.0625 13.347 9.1618 13.1073 9.33855 12.9306C9.5153 12.7538 9.75503 12.6545 10.005 12.6545C10.255 12.6545 10.4947 12.7538 10.6714 12.9306C10.8482 13.1073 10.9475 13.347 10.9475 13.597Z" stroke="#EBDEDB" stroke-linecap="round" stroke-linejoin="round"/>
<path d="M6 17.365H8.355M6 15.952H8.355M16.364 17.365H18.72M16.364 15.952H18.72M12.36 16.893V15.663M12.36 16.893L11.616 17.816M12.36 16.893L11.283 16.217M12.36 16.893L13.103 17.816M12.36 16.893L13.437 16.217M8.59 21.949C8.44679 22.0316 8.28437 22.0751 8.11905 22.075C7.95373 22.0749 7.79133 22.0314 7.64818 21.9487C7.50502 21.866 7.38615 21.7471 7.30351 21.6039C7.22086 21.4607 7.17735 21.2983 7.17735 21.133C7.17735 20.9677 7.22086 20.8053 7.30351 20.6621C7.38615 20.5189 7.50502 20.4 7.64818 20.3173C7.79133 20.2346 7.95373 20.1911 8.11905 20.191C8.28437 20.1909 8.44679 20.2344 8.59 20.317M13.77 21.949C13.6268 22.0316 13.4644 22.0751 13.299 22.075C13.1337 22.0749 12.9713 22.0314 12.8282 21.9487C12.685 21.866 12.5662 21.7471 12.4835 21.6039C12.4009 21.4607 12.3574 21.2983 12.3574 21.133C12.3574 20.9677 12.4009 20.8053 12.4835 20.6621C12.5662 20.5189 12.685 20.4 12.8282 20.3173C12.9713 20.2346 13.1337 20.1911 13.299 20.191C13.4644 20.1909 13.6268 20.2344 13.77 20.317M9.531 22.074H11.416M14.713 22.074H16.597M17.538 22.074H19.423M20.365 17.313C20.365 17.313 21.303 18.38 21.303 19.693C21.303 21.006 20.365 22.073 20.365 22.073M7.178 7.001L10.947 10.77H13.773L17.543 7V19.25H7.177V7L7.178 7.001Z" stroke="#EBDEDB" stroke-linecap="round" stroke-linejoin="round"/>
</svg>
